# xmcd
#
# Track frame offsets: 
#        150
#        16943
#        31291
#        47745
#        63566
#        80783
#        100967
#        117335
#        132310
#        151910
#        166665
#        183497
#        199648
#        216953
#        235898
#        251991
#        268660
#        280950
#
# Disc length: 3984 seconds
#
# Revision: 1
# Processed by: cddbd v1.5.2PL0 Copyright (c) Steve Scherf et al.
# Submitted via: ExactAudioCopy v1.0b3
#
DISCID=050f8e12
DTITLE=Various Artist - Now That's What I Call Country, Vol. 5
DYEAR=2012
DGENRE=Country
TTITLE0=Toby Keith - Red Solo Cup
TTITLE1=Eric Church - Drink in My Hand
TTITLE2=Luke Bryan - I Don't Want This Night to End
TTITLE3=Jake Owen - Alone with You
TTITLE4=Blake Shelton - God Gave Me You
TTITLE5=Lionel Richie with Jennifer Nettles - Hello
TTITLE6=Lady Antebellum - Just a Kiss
TTITLE7=Eli Young Band - Crazy Girl
TTITLE8=Taylor Swift - Sparks Fly
TTITLE9=Miranda Lambert - Baggage Claim
TTITLE10=Rascal Flatts - Banjo
TTITLE11=Keith Urban - You Gonna Fly
TTITLE12=The Band Perry - All Your Life
TTITLE13=Brad Paisley feat. Alabama - Old Alabama
TTITLE14=Brantley Gilbert - Country Must Be Country Wide
TTITLE15=David Nail - Let It Rain
TTITLE16=Chris Young - You
TTITLE17=Dierks Bentley - Home
EXTD=
EXTT0=
EXTT1=
EXTT2=
EXTT3=
EXTT4=
EXTT5=
EXTT6=
EXTT7=
EXTT8=
EXTT9=
EXTT10=
EXTT11=
EXTT12=
EXTT13=
EXTT14=
EXTT15=
EXTT16=
EXTT17=
PLAYORDER=
